<?xml version="1.0" encoding="UTF-8" standalone="no"?>
<!-- Created with Inkscape (http://www.inkscape.org/) -->

<svg id="svg8106" viewBox="0 0 450.42098 394.11834" version="1.1" width="450.42099" height="394.11835" xmlns="http://www.w3.org/2000/svg" xmlns:svg="http://www.w3.org/2000/svg" xmlns:rdf="http://www.w3.org/1999/02/22-rdf-syntax-ns#" xmlns:cc="http://creativecommons.org/ns#" xmlns:dc="http://purl.org/dc/elements/1.1/">
  <title id="title72">Construction helmet</title>
  <defs id="defs8108" />
  <rect style="fill:#ffbc00;fill-opacity:1;fill-rule:evenodd;stroke-width:3.56033;-inkscape-stroke:none;stop-color:#000000" id="rect5909" width="450.42099" height="394.11835" x="0" y="0" rx="0" ry="0" />
  <g id="g835" transform="translate(156.40629,120.4778)">
    <path style="fill:#ffbc00;fill-opacity:1;stroke:none;stroke-width:2.84645px;stroke-linecap:butt;stroke-linejoin:miter;stroke-opacity:1" d="m -56.34276,88.194979 c 1.779032,-4.269676 33.445792,-40.206112 33.445792,-40.206112 l 4.269676,-34.513211 16.7228962,-39.138693 24.9064408,-25.618054 36.292251,-19.21354 29.88773,-1.779031 32.022564,3.202256 23.83902,16.011284 18.14613,8.539351 10.31838,14.943865 15.29967,23.127409 7.82774,32.73418 -1.77903,19.569346 -11.03,26.329666 L 76.372999,108.12013 16.597532,129.82432 -33.21535,113.45723 Z" id="path74" />
    <path style="color:#000000;fill:#000000;stroke-width:2.84645" d="m 65.689872,-81.238017 c -1.573518,-0.09849 -3.37404,0.126952 -5.07024,0.800564 -0.295888,0.116989 -0.508945,0.271836 -0.800564,0.400296 -6.678627,3.215038 -11.14095,8.029325 -14.543597,12.675586 -0.229708,0.298421 -0.439236,0.634303 -0.667122,0.934005 -38.6320395,16.008722 -66.352903,53.121141 -68.581673,96.868265 -0.09649,1.891211 -0.133413,3.822556 -0.133442,5.737363 0,1.312071 0.103526,2.374452 0.133442,3.335698 0.03416,1.101833 0.08018,2.224131 0.133413,3.33567 -0.477777,0.781635 -0.929366,1.549921 -1.334274,2.401692 l -30.154584,28.820311 v 0.133498 c -4.280204,4.280151 -5.907944,9.773829 -5.603949,14.943865 0.304004,5.169951 2.435924,10.000861 5.470525,13.609564 11.03597,13.12555 28.56555,24.53392 50.7023975,27.61948 12.9297135,1.8022 28.6694485,2.58941 39.4944995,-0.53371 l 37.092798,-13.07588 77.515758,-21.882092 -0.1335,-0.133498 c 28.3942,-8.597988 46.96644,-22.758851 46.96644,-38.827349 0,-0.825812 -0.16538,-1.597427 -0.26672,-2.401692 0.0788,-0.182458 0.19242,-0.350967 0.26672,-0.533709 0.78103,-1.908375 1.32937,-3.875158 1.73457,-5.870804 0.12239,-0.602252 0.0487,-0.761853 0,-0.667123 v -0.133499 c 0.20779,-2.277843 0.33238,-4.554406 0.40026,-6.804781 0.0299,-0.960705 0.26672,-2.023371 0.26672,-3.335698 0,-29.5290765 -11.67848,-56.429456 -30.5493,-76.320451 0.50066,-0.785706 0.89984,-1.954658 0.934,-3.335699 0.0342,-1.380927 -0.21462,-2.952964 -0.934,-4.669943 -0.71919,-1.717121 -1.95657,-3.484482 -3.60253,-5.07024 -1.26522,-1.180964 -2.66661,-2.265803 -4.26967,-3.068844 -2.57695,-1.290979 -5.36129,-2.083544 -8.00565,-2.535105 -2.09914,-0.369327 -4.14599,-0.597556 -6.13766,-0.667151 -0.74073,-0.02562 -1.40916,-0.0085 -2.13483,0 -3.22902,-1.908175 -6.57909,-3.62245 -10.00707,-5.203653 0.37616,-0.587764 0.64375,-1.213954 0.66715,-2.001425 0.0299,-1.005594 -0.17506,-2.171244 -0.80056,-3.33567 -0.62528,-1.164312 -1.64756,-2.308243 -2.9354,-3.335698 -1.28799,-1.027369 -2.85992,-1.987904 -4.66998,-2.535106 -1.83357,-0.554374 -3.7065,-0.951511 -5.60395,-1.20086 -1.05409,-0.120405 -2.03341,-0.09536 -3.06881,-0.133499 -6.56676,-0.246218 -12.80208,0.975906 -18.413005,2.935402 -0.131506,-0.01423 -0.269274,0.01423 -0.400268,0 -1.869976,-0.189573 -3.707644,-0.304627 -5.603949,-0.400296 -1.895936,-0.09621 -3.817261,-0.133498 -5.737163,-0.133498 -5.148688,0 -9.579672,0.124674 -14.543597,0.800564 -0.0982,-0.791114 0.01993,-1.451718 -0.266713,-2.401693 -0.07486,-0.436645 -0.309551,-0.902125 -0.533709,-1.334273 -0.448544,-0.864268 -1.179512,-1.770663 -2.268251,-2.401693 -1.088682,-0.630973 -2.429445,-0.968789 -4.002821,-1.067419 z m 21.615233,11.474753 c 0.312967,0 0.621835,-0.0027 0.933977,0 -18.496235,9.038619 -33.703738,23.85445 -43.097024,41.495924 -0.850007,1.596659 -0.894839,3.245779 0,3.735966 0.89481,0.490159 2.107227,-0.422242 3.068815,-1.867983 12.318868,-18.520743 31.447926,-32.031135 52.170117,-37.359661 6.39053,-1.556895 12.6901,-2.466763 18.01268,-1.067419 1.19192,0.281514 2.3414,0.727495 3.46911,1.200832 1.1131,0.467273 2.25328,0.716508 3.3357,0.934005 0.0384,0.01423 0.0959,-0.01423 0.13349,0 2.68896,1.031611 5.42762,2.097237 8.00565,3.33567 0.28905,0.138622 0.5129,0.392383 0.80056,0.53371 -12.2978,1.425047 -24.09207,4.928344 -35.224824,9.60677 -22.426044,9.390155 -42.526339,23.607463 -58.574598,41.3624822 -1.65689,1.8320609 -2.486485,3.8468354 -1.73457,4.5365303 0.75189,0.6897234 2.661716,-0.197259 4.403118,-1.867983 16.876319,-16.1928875 37.168237,-28.5395935 58.974894,-35.8919465 12.61063,-4.232672 25.7082,-6.888865 38.56049,-6.671368 3.30302,0.07372 6.39683,0.330501 9.07306,1.067419 1.65245,0.470433 3.23286,0.978723 4.53653,1.734541 0.81093,0.470177 1.46604,0.894184 2.13484,1.334274 1.05054,0.636153 2.06712,1.336409 3.06885,2.001425 19.69857,18.182527 32.4417,43.7819934 33.89055,72.317602 0.0919,1.804991 0.13349,3.64283 0.13349,5.470536 0,0.919517 -0.0951,1.947427 -0.13349,3.202257 -0.0666,2.208845 -0.20723,4.294439 -0.4003,6.404513 -0.0142,0.161394 -0.0515,0.521043 0,0.266712 -0.3373,1.659225 -0.80039,3.306409 -1.46769,4.936799 -0.33559,0.81955 -0.79356,1.73975 -1.20086,2.535134 -0.40732,0.795383 -0.84266,1.478019 -1.33427,2.268251 -0.98428,1.58237 -2.03109,3.261491 -3.33567,4.803385 -1.29573,1.531902 -2.79726,3.05834 -4.40312,4.536558 -1.6161,1.487498 -3.3341,2.885988 -5.20365,4.269676 -1.87909,1.390776 -3.98005,2.695702 -6.13766,4.002792 -2.15812,1.307603 -4.40924,2.671536 -6.80481,3.869408 -4.79627,2.398049 -10.0558,4.482875 -15.74443,6.404514 -2.84312,0.960363 -5.7679,1.839888 -8.8062,2.668547 -3.03831,0.828658 -6.13681,1.590796 -9.33992,2.268279 -6.41391,1.356391 -13.1609,2.487428 -20.14752,3.202257 -6.98576,0.714687 -14.192285,1.067419 -21.61523,1.067419 -3.711487,0 -7.460063,-0.0945 -11.074485,-0.266997 C 72.616282,92.445071 69.049395,92.174373 65.556516,91.81703 58.569903,91.102144 51.822905,89.971192 45.408998,88.614773 39.002492,87.259863 32.948938,85.598731 27.262868,83.677947 21.570816,81.755226 16.309582,79.669006 11.51844,77.273433 9.1228669,76.075619 6.8718199,74.711656 4.7136412,73.404026 2.5677649,72.103995 0.46859026,70.801886 -1.4240175,69.401233 -3.3071123,68.007497 -5.026838,66.60508 -6.6276817,65.131558 c -1.5906278,-1.464101 -3.091174,-2.985756 -4.4031063,-4.536559 -1.304525,-1.542036 -2.351267,-3.221015 -3.335681,-4.803385 -0.998651,-1.605341 -1.877017,-3.19534 -2.535123,-4.803385 -0.667318,-1.630476 -1.264245,-3.277603 -1.601128,-4.936799 0.05095,0.251057 0.01423,-0.108734 0,-0.266712 -0.0085,-0.113004 0.05892,0.186727 0,-0.133498 -0.180465,-2.047708 -0.201671,-4.130542 -0.266855,-6.271072 -0.03843,-1.254431 -0.133441,-2.28254 -0.133413,-3.202257 0,-40.9348032 23.2903691,-76.45247 57.373763,-94.066276 -10.27227,15.21681 -18.191667,31.829008 -23.483213,49.1012691 -0.459872,1.5011326 -0.162247,2.8649523 0.800565,3.2022567 0.962982,0.3372759 2.056779,-0.5901545 2.668547,-2.0014247 8.512017,-19.6356691 20.524954,-37.4927331 35.091379,-52.5703811 2.529299,-2.481649 4.826299,-4.729747 7.205078,-6.271071 8.482706,-2.174632 17.386489,-3.335699 26.552059,-3.335699 z M -7.4060948,41.626339 c -0.9311195,0.176195 -1.4899403,0.944708 -1.4899403,2.29051 v 10.273893 c 0,2.392555 1.8771201,5.612004 4.2696756,7.071664 L 17.394717,74.605142 c 2.392556,1.45966 4.269676,0.791427 4.269676,-1.601128 V 62.59668 c 0,-2.392556 -1.87712,-5.478563 -4.269676,-6.938223 L -4.6263595,42.315721 c -0.5981503,-0.365058 -1.2175237,-0.569661 -1.7345529,-0.667123 -0.387772,-0.07315 -0.7348083,-0.08112 -1.0451824,-0.02277 z M -23.300628,64.331221 c 3.139065,4.030887 5.588922,6.815569 9.467783,10.14048 12.141247,10.407818 27.359805,16.864023 42.96917,21.481819 13.772835,4.07469 27.998597,6.86208 42.290909,8.2725 L 22.192543,120.77101 C 11.905466,121.60553 0.85064937,120.34219 -9.4241826,117.3019 -27.285659,111.25604 -42.629094,103.32287 -49.585819,88.08132 Z" id="path65" />
    <path id="path6001" style="font-size:28px;line-height:1.25;font-family:Archive;-inkscape-font-specification:Archive;letter-spacing:0px;word-spacing:0px;stroke-width:2.84645" d="m -61.983703,156.8109 c -1.434611,0 -1.673445,1.35634 -1.434344,2.31275 l 14.743724,48.45637 c 0,0 0.398102,1.6734 2.151516,1.6734 h 7.016056 c 2.072215,0 2.551798,-1.83463 2.551798,-1.83463 l 7.966725,-25.42347 7.972286,25.42347 c 0,0 0.479582,1.83463 2.551797,1.83463 h 6.693608 c 1.75341,0 2.151515,-1.6734 2.151515,-1.6734 L 5.0468696,159.12365 c 0.3188025,-0.95641 0.078107,-2.31275 -1.3565129,-2.31275 h -8.4503996 c -2.3910184,0 -2.9464747,1.59539 -3.1855765,2.5518 l -7.8888946,27.09688 -7.733228,-27.09688 c -0.318802,-1.11581 -0.876217,-2.5518 -2.62963,-2.5518 h -5.581712 c -1.833114,0 -2.388661,1.43599 -2.707463,2.5518 l -7.649835,27.09688 -7.894453,-27.09688 c -0.318802,-0.95641 -0.79456,-2.5518 -3.185578,-2.5518 z m 88.784792,0 c -1.753414,0 -2.625808,0.7947 -3.263413,2.46841 L 5.8418747,207.02407 c -0.3985059,0.95641 -0.3969033,2.22935 1.3565101,2.22935 h 8.3670072 c 1.753413,0 2.392308,-0.47776 3.029913,-2.39058 l 2.229348,-6.29888 h 19.524871 l 2.23491,6.29888 c 0.637605,1.91282 1.2765,2.39058 3.029913,2.39058 h 8.367007 c 1.753414,0 1.755013,-1.27294 1.35651,-2.22935 L 37.719893,159.27931 c -0.717305,-1.67371 -1.509996,-2.46841 -3.26341,-2.46841 z m 27.897437,0 c -1.514312,0 -1.671624,1.35265 -1.273121,2.22935 l 17.050907,30.52707 v 17.37336 c 0,1.83311 0.79843,2.31274 2.312741,2.31274 h 7.972284 c 1.434611,0 2.312741,-0.47963 2.312741,-2.31274 v -17.37336 l 16.417125,-30.52707 c 0.398503,-0.8767 0.235629,-2.22935 -1.27868,-2.22935 H 89.60646 c -1.833114,0 -2.627587,0.23865 -3.663695,2.39058 l -9.006345,17.1343 -9.328798,-17.1343 c -1.115808,-2.15192 -1.908411,-2.39058 -3.741525,-2.39058 z m 54.038084,0 c -1.83312,0 -2.31274,0.87813 -2.31274,2.31275 v 47.81703 c 0,1.83311 0.87813,2.31274 2.31274,2.31274 h 7.88889 c 1.43461,0 2.31274,-0.47963 2.31274,-2.31274 v -27.73621 l 16.89524,27.34148 c 1.03611,1.59402 1.59335,2.70747 3.58586,2.70747 h 7.25511 c 1.83312,0 2.30719,-0.87813 2.30719,-2.31274 v -47.81703 c 0,-1.83312 -0.87257,-2.31275 -2.30719,-2.31275 h -7.65539 c -1.43461,0 -2.30718,0.47963 -2.30718,2.31275 v 27.65282 l -16.9008,-27.2581 c -1.03611,-1.59401 -1.59335,-2.70747 -3.58586,-2.70747 z m 54.35497,0 c -1.83311,0 -2.31274,0.87813 -2.31274,2.31275 v 47.81703 c 0,1.43461 0.47963,2.31274 2.31274,2.31274 h 35.70294 c 1.83311,0 2.31274,-0.87813 2.31274,-2.31274 v -6.53239 c 0,-1.43461 -0.47963,-2.31274 -2.31274,-2.31274 h -25.42347 v -10.51852 h 21.35949 c 1.83312,0 2.31274,-0.87813 2.31274,-2.31274 v -6.21549 c 0,-1.43461 -0.47962,-2.31274 -2.31274,-2.31274 h -21.35949 v -8.68946 h 24.07252 c 1.83311,0 2.30718,-0.87813 2.30718,-2.31274 v -6.61021 c 0,-1.43462 -0.47407,-2.31275 -2.30718,-2.31275 z M 30.631566,171.79369 36.607999,189.4061 H 24.649571 Z" />
  </g>
  <metadata id="metadata52">
    <rdf:RDF>
      <cc:Work>
        <dc:format>image/svg+xml</dc:format>
        <dc:type rdf:resource="http://purl.org/dc/dcmitype/StillImage" />
        <cc:license rdf:resource="http://creativecommons.org/publicdomain/zero/1.0/" />
        <dc:publisher>
          <cc:Agent rdf:about="http://openclipart.org/">
            <dc:title>Openclipart</dc:title>
          </cc:Agent>
        </dc:publisher>
        <dc:title>Construction helmet</dc:title>
        <dc:date>2011-12-21T09:10:23</dc:date>
        <dc:description>A set of construction symbols I used for a construction foundation</dc:description>
        <dc:source>https://openclipart.org/detail/166376/construction-symbols-by-printerkiller</dc:source>
        <dc:creator>
          <cc:Agent>
            <dc:title>PrinterKiller</dc:title>
          </cc:Agent>
        </dc:creator>
        <dc:subject>
          <rdf:Bag>
            <rdf:li>construction symbol hard hat cone sign blue print hammer Infrastructure crane Scaffolding builder helmet</rdf:li>
          </rdf:Bag>
        </dc:subject>
      </cc:Work>
      <cc:License rdf:about="http://creativecommons.org/publicdomain/zero/1.0/">
        <cc:permits rdf:resource="http://creativecommons.org/ns#Reproduction" />
        <cc:permits rdf:resource="http://creativecommons.org/ns#Distribution" />
        <cc:permits rdf:resource="http://creativecommons.org/ns#DerivativeWorks" />
      </cc:License>
    </rdf:RDF>
  </metadata>
</svg>
